<svg width="150" height="110" viewBox="0 0 150 110" fill="none" xmlns="http://www.w3.org/2000/svg">
<path d="M11.1522 100.851C14.4812 107.006 21.5466 109.648 21.5466 109.648C21.5466 109.648 23.2146 102.311 19.8856 96.1557C16.5565 90.0007 9.4911 87.3584 9.4911 87.3584C9.4911 87.3584 7.82313 94.6955 11.1522 100.851Z" fill="#8F9BB3"/>
<path d="M13.4401 98.8257C19.4504 102.431 21.7652 109.591 21.7652 109.591C21.7652 109.591 14.3353 110.907 8.32504 107.302C2.31475 103.697 0 96.5364 0 96.5364C0 96.5364 7.42985 95.2207 13.4401 98.8257Z" fill="#5DB329"/>
<path d="M96.9805 98.0322H33.5557V97.5774H96.5241V75.5144H38.8876L36.0877 69.699L36.4991 69.5022L39.1748 75.0593H96.9805V98.0322Z" fill="#8F9BB3"/>
<path d="M41.9971 109.177C44.6432 109.177 46.7882 107.039 46.7882 104.401C46.7882 101.763 44.6432 99.6244 41.9971 99.6244C39.3511 99.6244 37.2061 101.763 37.2061 104.401C37.2061 107.039 39.3511 109.177 41.9971 109.177Z" fill="#8F9BB3"/>
<path d="M89.2237 109.177C91.8697 109.177 94.0148 107.039 94.0148 104.401C94.0148 101.763 91.8697 99.6244 89.2237 99.6244C86.5777 99.6244 84.4326 101.763 84.4326 104.401C84.4326 107.039 86.5777 109.177 89.2237 109.177Z" fill="#8F9BB3"/>
<path d="M144.891 5.91378C146.529 5.91378 147.857 4.58994 147.857 2.95689C147.857 1.32385 146.529 0 144.891 0C143.253 0 141.925 1.32385 141.925 2.95689C141.925 4.58994 143.253 5.91378 144.891 5.91378Z" fill="#8F9BB3"/>
<path d="M103.764 68.0084H32.4743L17.0488 17.7413H119.65L119.557 18.0371L103.764 68.0084ZM32.8118 67.5535H103.429L119.028 18.1962H17.6655L32.8118 67.5535Z" fill="#8F9BB3"/>
<path d="M98.1993 65.3927H35.5829L22.0342 20.8119H112.152L112.07 21.0744L98.1993 65.3927Z" fill="#EDF1F7"/>
<path d="M120.928 13.2506L120.487 13.1339L123.498 1.81955H141.013V2.27458H123.849L120.928 13.2506Z" fill="#8F9BB3"/>
<path d="M114.522 32.9807H22.0332V33.4356H114.522V32.9807Z" fill="#8F9BB3"/>
<path d="M109.226 49.7402H27.1768V50.1951H109.226V49.7402Z" fill="#8F9BB3"/>
<path d="M68.5769 17.9688H68.1201V67.781H68.5769V17.9688Z" fill="#8F9BB3"/>
<path d="M89.0055 17.9542L85.73 67.7654L86.1859 67.7952L89.4614 17.984L89.0055 17.9542Z" fill="#8F9BB3"/>
<path d="M47.701 17.954L47.2451 17.9836L50.5016 67.796L50.9575 67.7664L47.701 17.954Z" fill="#8F9BB3"/>
<path d="M150 109.466H0V110H150V109.466Z" fill="#8F9BB3"/>
</svg>
