<svg width="25" height="24" viewBox="0 0 25 24" fill="none" xmlns="http://www.w3.org/2000/svg">
<path d="M9.31 2L5.69 5.63" stroke="#8F9BB3" stroke-width="1.5" stroke-miterlimit="10" stroke-linecap="round" stroke-linejoin="round"/>
<path d="M15.69 2L19.31 5.63" stroke="#8F9BB3" stroke-width="1.5" stroke-miterlimit="10" stroke-linecap="round" stroke-linejoin="round"/>
<path d="M2.5 7.84998C2.5 5.99998 3.49 5.84998 4.72 5.84998H20.28C21.51 5.84998 22.5 5.99998 22.5 7.84998C22.5 9.99998 21.51 9.84998 20.28 9.84998H4.72C3.49 9.84998 2.5 9.99998 2.5 7.84998Z" stroke="#8F9BB3" stroke-width="1.5"/>
<path d="M10.26 14V17.55" stroke="#8F9BB3" stroke-width="1.5" stroke-linecap="round"/>
<path d="M14.86 14V17.55" stroke="#8F9BB3" stroke-width="1.5" stroke-linecap="round"/>
<path d="M4 10L5.41 18.64C5.73 20.58 6.5 22 9.36 22H15.39C18.5 22 18.96 20.64 19.32 18.76L21 10" stroke="#8F9BB3" stroke-width="1.5" stroke-linecap="round"/>
</svg>
