<svg width="20" height="20" viewBox="0 0 20 20" fill="none" xmlns="http://www.w3.org/2000/svg">
<path d="M7.34162 1.66669L4.32495 4.69169" stroke="#292D32" stroke-width="1.5" stroke-miterlimit="10" stroke-linecap="round" stroke-linejoin="round"/>
<path d="M12.6583 1.66669L15.675 4.69169" stroke="#292D32" stroke-width="1.5" stroke-miterlimit="10" stroke-linecap="round" stroke-linejoin="round"/>
<path d="M1.66663 6.54167C1.66663 5 2.49163 4.875 3.51663 4.875H16.4833C17.5083 4.875 18.3333 5 18.3333 6.54167C18.3333 8.33333 17.5083 8.20833 16.4833 8.20833H3.51663C2.49163 8.20833 1.66663 8.33333 1.66663 6.54167Z" stroke="#292D32" stroke-width="1.5"/>
<path d="M8.1333 11.6667V14.625" stroke="#292D32" stroke-width="1.5" stroke-linecap="round"/>
<path d="M11.9667 11.6667V14.625" stroke="#292D32" stroke-width="1.5" stroke-linecap="round"/>
<path d="M2.91663 8.33331L4.09163 15.5333C4.35829 17.15 4.99996 18.3333 7.38329 18.3333H12.4083C15 18.3333 15.3833 17.2 15.6833 15.6333L17.0833 8.33331" stroke="#292D32" stroke-width="1.5" stroke-linecap="round"/>
</svg>
