<svg width="24" height="24" viewBox="0 0 24 24" fill="none" xmlns="http://www.w3.org/2000/svg">
<path d="M21 21.5H3C2.86614 21.5 2.75 21.3839 2.75 21.25C2.75 21.1161 2.86614 21 3 21H21C21.1339 21 21.25 21.1161 21.25 21.25C21.25 21.3839 21.1339 21.5 21 21.5Z" fill="#FFAA00" stroke="#FFAA00"/>
<path d="M18.6665 3.83353L18.6665 3.83353L18.6683 3.8353C19.6133 4.7708 19.9982 5.60868 19.9901 6.41492L19.9901 6.41492V6.41997C19.9901 7.19744 19.6052 8.02725 18.6683 8.95463L18.6683 8.95462L18.6651 8.95789L17.5055 10.1271C15.0576 9.40907 13.0957 7.44892 12.3752 5.00197L13.5436 3.83353C14.486 2.89117 15.3375 2.50115 16.1206 2.50621C16.9053 2.51129 17.7469 2.91386 18.6665 3.83353Z" fill="#FFAA00" stroke="#FFAA00"/>
<path d="M15.6101 11.53C15.3201 11.39 15.0401 11.25 14.7701 11.09C14.5501 10.96 14.3401 10.82 14.1301 10.67C13.9601 10.56 13.7601 10.4 13.5701 10.24C13.5501 10.23 13.4801 10.17 13.4001 10.09C13.0701 9.80999 12.7001 9.44999 12.3701 9.04999C12.3401 9.02999 12.2901 8.95999 12.2201 8.86999C12.1201 8.74999 11.9501 8.54999 11.8001 8.31999C11.6801 8.16999 11.5401 7.94999 11.4101 7.72999C11.2501 7.45999 11.1101 7.18999 10.9701 6.90999C10.9489 6.86459 10.9284 6.81943 10.9085 6.77452C10.7609 6.44121 10.3263 6.34376 10.0685 6.60152L4.34007 12.33C4.21007 12.46 4.09007 12.71 4.06007 12.88L3.52007 16.71C3.42007 17.39 3.61007 18.03 4.03007 18.46C4.39007 18.81 4.89007 19 5.43007 19C5.55007 19 5.67007 18.99 5.79007 18.97L9.63007 18.43C9.81007 18.4 10.0601 18.28 10.1801 18.15L15.9014 12.4287C16.1609 12.1691 16.063 11.7237 15.7254 11.5796C15.6874 11.5634 15.649 11.5469 15.6101 11.53Z" fill="#FFAA00"/>
</svg>
