<svg width="20" height="20" viewBox="0 0 20 20" fill="none" xmlns="http://www.w3.org/2000/svg">
<path d="M12.1083 7.89172L7.8916 12.1084C7.34994 11.5667 7.0166 10.8251 7.0166 10.0001C7.0166 8.35006 8.34993 7.01672 9.99993 7.01672C10.8249 7.01672 11.5666 7.35006 12.1083 7.89172Z" stroke="#292D32" stroke-width="1.5" stroke-linecap="round" stroke-linejoin="round"/>
<path d="M14.8499 4.80828C13.3915 3.70828 11.7249 3.10828 9.99987 3.10828C7.0582 3.10828 4.31654 4.84161 2.4082 7.84161C1.6582 9.01661 1.6582 10.9916 2.4082 12.1666C3.06654 13.1999 3.8332 14.0916 4.66654 14.8083" stroke="#292D32" stroke-width="1.5" stroke-linecap="round" stroke-linejoin="round"/>
<path d="M7.0166 16.2749C7.9666 16.6749 8.97493 16.8916 9.99993 16.8916C12.9416 16.8916 15.6833 15.1583 17.5916 12.1583C18.3416 10.9833 18.3416 9.00828 17.5916 7.83328C17.3166 7.39994 17.0166 6.99161 16.7083 6.60828" stroke="#292D32" stroke-width="1.5" stroke-linecap="round" stroke-linejoin="round"/>
<path d="M12.9252 10.5834C12.7085 11.7584 11.7502 12.7167 10.5752 12.9334" stroke="#292D32" stroke-width="1.5" stroke-linecap="round" stroke-linejoin="round"/>
<path d="M7.8915 12.1083L1.6665 18.3333" stroke="#292D32" stroke-width="1.5" stroke-linecap="round" stroke-linejoin="round"/>
<path d="M18.3334 1.66663L12.1084 7.89163" stroke="#292D32" stroke-width="1.5" stroke-linecap="round" stroke-linejoin="round"/>
</svg>
