<svg width="147" height="192" viewBox="0 0 147 192" fill="none" xmlns="http://www.w3.org/2000/svg">
<path d="M131.901 77.4408H131.493V58.9475C131.493 26.7881 106.337 4.67878e-05 73.0894 0C33.5 -9.31323e-10 18.7389 41.5535 18.7389 72.897V74.6647C18.7389 77.3163 20.9146 79.492 23.5662 79.492H39C41.6516 79.492 43.8273 77.3163 43.8273 74.6647V74.1208C43.8273 56.8513 48.5 25.1564 71.9336 25.1564C95.3672 25.1564 106.337 38.8904 106.337 57.3837V77.3728H58.7435V77.4408H14.7539C6.59504 77.7128 0 84.3078 0 92.5346V176.162C0 184.525 6.79901 191.324 15.1618 191.324H131.833C140.196 191.324 146.995 184.525 146.995 176.162V92.6026C147.063 84.2398 140.264 77.4408 131.901 77.4408ZM82.54 138.156C81.3842 138.972 81.0443 139.856 81.0443 141.216C81.1123 147.335 81.1123 153.454 81.0443 159.641C81.1802 162.225 79.8884 164.672 77.5768 165.828C72.2055 168.548 66.8343 164.74 66.8343 159.641C66.8343 159.641 66.8343 159.641 66.8343 159.573C66.8343 153.454 66.8343 147.267 66.8343 141.148C66.8343 139.924 66.5624 139.04 65.4745 138.224C59.8993 134.145 58.0636 127.142 60.8512 120.954C63.5708 114.971 70.1658 111.436 76.3529 112.728C83.2879 114.087 88.1152 119.731 88.1832 126.598C88.3872 131.425 86.4155 135.368 82.54 138.156Z" fill="#E4E4E4"/>
<circle cx="73" cy="134.992" r="35" fill="#3D8BD3"/>
<path d="M72.6144 121.992C68.717 121.992 66.1927 123.589 64.2108 126.437C63.8513 126.953 63.9621 127.662 64.4636 128.042L66.57 129.639C67.0765 130.023 67.7971 129.933 68.1936 129.437C69.4167 127.904 70.324 127.022 72.2345 127.022C73.7367 127.022 75.5947 127.989 75.5947 129.445C75.5947 130.547 74.6856 131.112 73.2024 131.944C71.4728 132.913 69.1839 134.12 69.1839 137.139V137.617C69.1839 138.264 69.7086 138.789 70.3558 138.789H73.8944C74.5416 138.789 75.0663 138.264 75.0663 137.617V137.335C75.0663 135.243 81.1829 135.155 81.1829 129.492C81.1829 125.227 76.759 121.992 72.6144 121.992ZM72.1251 140.227C70.2601 140.227 68.7428 141.745 68.7428 143.61C68.7428 145.475 70.2601 146.992 72.1251 146.992C73.9902 146.992 75.5075 145.475 75.5075 143.61C75.5075 141.745 73.9902 140.227 72.1251 140.227Z" fill="white"/>
</svg>
