<?xml version="1.0" ?>
<!-- Uploaded to: SVG Repo, www.svgrepo.com, Generator: SVG Repo Mixer Tools -->
<svg width="800px" height="800px" viewBox="0 0 120 120" id="Layer_1" version="1.1" xml:space="preserve" xmlns="http://www.w3.org/2000/svg" xmlns:xlink="http://www.w3.org/1999/xlink">
<style type="text/css">
	.st0{fill:#6CEF6F;}
	.st1{fill:#66DD66;}
	.st2{fill:#3DB2FF;}
	.st3{fill:#FFFFFF;}
</style>
<g>
<path class="st0" d="M69.6,79.5l-3.7,2.5c-5.7,3.9-11.1,6.1-14.3,1.5L33.3,56.8C30,52,34,47.8,39.9,44l3.7-2.5L31.1,23.1l-5.3,3.6   c-9.4,6.4-11.8,19-5.4,28.3l27.9,40.9c6.4,9.4,19,11.8,28.3,5.4l5.3-3.6L69.6,79.5z"/>
<g>
<path class="st1" d="M45.4,38.9L34.3,22.8c-1.8-2.7-5.5-3.4-8.2-1.5l0,0c-2.7,1.8-3.4,5.5-1.5,8.2l11,16.1    c1.8,2.7,5.5,3.4,8.2,1.5l0,0C46.5,45.2,47.2,41.6,45.4,38.9z"/>
<path class="st1" d="M83.5,94.9L72.4,78.7c-1.8-2.7-5.5-3.4-8.2-1.5l0,0c-2.7,1.8-3.4,5.5-1.5,8.2l11.1,16.1    c1.8,2.7,5.5,3.4,8.2,1.5l0,0C84.7,101.2,85.4,97.6,83.5,94.9z"/>
</g>
<path class="st2" d="M102.8,44C101,56.4,90,65.8,77.5,65.5c-3.5-0.1-6.9-0.9-9.9-2.2c-1.6-0.7-8.1,1.8-11.9,3.3   C54.7,67,53.7,66,54.2,65c1.6-3.3,4.1-8.8,3.3-9.8c-3.8-5.3-5.5-12-4.4-19.1c2.1-12.4,13.5-21.5,26-20.8C94,16,104.9,29.3,102.8,44   z"/>
<g>
<path class="st3" d="M78.5,47.9H76c-0.8,0-1.4-0.7-1.4-1.4l0,0c0-1.7,0.3-3.1,0.8-4.2c0.6-1.1,1.7-2.3,3.4-3.7    c1.7-1.4,2.7-2.3,3-2.7c0.5-0.7,0.8-1.4,0.8-2.3c0-1.1-0.5-2.1-1.3-2.9c-0.9-0.8-2.1-1.2-3.7-1.2c-1.5,0-2.7,0.4-3.7,1.2    c-0.6,0.5-1,1.1-1.4,1.9c-0.5,1.1-1.6,1.8-2.8,1.7l0,0c-1.9-0.3-3-2.3-2.1-4c0.5-0.9,1.2-1.8,2.1-2.6c2-1.7,4.5-2.5,7.6-2.5    c3.3,0,5.9,0.8,7.9,2.6c2,1.7,2.9,3.8,2.9,6c0,1.3-0.4,2.4-1,3.6c-0.7,1.1-2.3,2.7-4.6,4.6c-1.2,1-2,1.8-2.3,2.4    c-0.2,0.5-0.4,1.1-0.4,2.1C79.8,47.3,79.3,47.9,78.5,47.9z M74.7,52.9v-0.3c0-1.5,1.2-2.7,2.7-2.7h0.3c1.5,0,2.7,1.2,2.7,2.7v0.3    c0,1.5-1.2,2.7-2.7,2.7h-0.3C75.9,55.6,74.7,54.4,74.7,52.9z"/>
</g>
</g>
</svg>