<svg width="24" height="24" viewBox="0 0 24 24" fill="none" xmlns="http://www.w3.org/2000/svg">
<path d="M21.0205 5.72755L21.0225 5.72775C21.1625 5.74108 21.2683 5.86344 21.2617 6.00616C21.2448 6.13523 21.1335 6.23 21.0099 6.23H21.0097H21.0096H21.0094H21.0092H21.009H21.0089H21.0087H21.0085H21.0083H21.0082H21.008H21.0078H21.0076H21.0075H21.0073H21.0071H21.007H21.0068H21.0066H21.0064H21.0063H21.0061H21.0059H21.0058H21.0056H21.0054H21.0052H21.0051H21.0049H21.0047H21.0046H21.0044H21.0042H21.0041H21.0039H21.0037H21.0036H21.0034H21.0032H21.0031H21.0029H21.0027H21.0026H21.0024H21.0022H21.0021H21.0019H21.0017H21.0016H21.0014H21.0012H21.0011H21.0009H21.0007H21.0006H21.0004H21.0002H21.0001H20.9999H20.9997H20.9996H20.9994H20.9993H20.9991H20.9989H20.9988H20.9986H20.9984H20.9983H20.9981H20.998H20.9978H20.9976H20.9975H20.9973H20.9972H20.997H20.9968H20.9967H20.9965H20.9963H20.9962H20.996H20.9959H20.9957H20.9955H20.9954H20.9952H20.9951H20.9949H20.9948H20.9946H20.9944H20.9943H20.9941H20.994H20.9938H20.9936H20.9935H20.9933H20.9932H20.993H20.9929H20.9927H20.9925H20.9924H20.9922H20.9921H20.9919H20.9918H20.9916H20.9915H20.9913H20.9911H20.991H20.9908H20.9907H20.9905H20.9904H20.9902H20.9901H20.9899H20.9897H20.9896H20.9894H20.9893H20.9891H20.989H20.9888H20.9887H20.9885H20.9884H20.9882H20.9881H20.9879H20.9877H20.9876H20.9874H20.9873H20.9871H20.987H20.9868H20.9867H20.9865H20.9864H20.9862H20.9861H20.9859H20.9858H20.9856H20.9855H20.9853H20.9852H20.985H20.9849H20.9847H20.9846H20.9844H20.9843H20.9841H20.984H20.9838H20.9837H20.9835H20.9834H20.9832H20.9831H20.9829H20.9828H20.9826H20.9825H20.9823H20.9822H20.982H20.9819H20.9817H20.9816H20.9814H20.9813H20.9811H20.981H20.9808H20.9807H20.9805H20.9804H20.9802H20.9801H20.9799H20.9798H20.9796H20.9795H20.9793H20.9792H20.979H20.9789H20.9787H20.9786H20.9784H20.9783H20.9781H20.978H20.9778H20.9777H20.9776H20.9774H20.9773H20.9771H20.977H20.9768H20.9767H20.9765H20.9764H20.9762H20.9761H20.9759H20.9758H20.9756H20.9755H20.9753H20.9752H20.975H20.9749H20.9748H20.9746H20.9745H20.9743H20.9742H20.974H20.9739H20.9737H20.9736H20.9734H20.9733H20.9731H20.973H20.9728H20.9727H20.9726H20.9724H20.9723H20.9721H20.972H20.9718H20.9717H20.9715H20.9714H20.9712H20.9711H20.9709H20.9708H20.9706H20.9705H20.9704H20.9702H20.9701H20.9699H20.9698H20.9696H20.9695H20.9693H20.9692H20.969H20.9689H20.9687H20.9686H20.9684H20.9683H20.9682H20.968H20.9679H20.9677H20.9676H20.9674H20.9673H20.9671H20.967H20.9668H20.9667H20.9665H20.9664H20.9662H20.9661H20.966H20.9658H20.9657H20.9655H20.9654H20.9652H20.9651H20.9649H20.9648H20.9646H20.9645H20.9643H20.9642H20.964H20.9639H20.9638H20.9636H20.9635H20.9633H20.9632H20.963H20.9629H20.9627H20.9626H20.9624H20.9623H20.9621H20.962H20.9618H20.9617H20.9615H20.9614H20.9612H20.9611H20.9609H20.9608H20.9606H20.9605H20.9604H20.9602H20.9601H20.9599H20.9598H20.9596H20.9595H20.9593H20.9592H20.959H20.9589H20.9587H20.9586H20.9584H20.9583H20.9581H20.958H20.9578H20.9577H20.9575H20.9574H20.9572H20.9571H20.9569H20.9568H20.9566H20.9565H20.9563H20.9562H20.956H20.9559H20.9557H20.9556H20.9554H20.9553H20.9551H20.955H20.9548C15.6441 5.69996 10.3369 5.49886 5.06081 6.02242C5.06072 6.02243 5.06063 6.02243 5.06054 6.02244L3.02251 6.22225C3.02234 6.22227 3.02217 6.22228 3.022 6.2223C2.87551 6.23599 2.76065 6.13572 2.74755 6.00145C2.73437 5.86639 2.83301 5.74149 2.97732 5.72775L2.9787 5.72761L5.01808 5.52768C5.01823 5.52766 5.01838 5.52765 5.01854 5.52763C5.93909 5.43856 6.86094 5.37904 7.7921 5.31896L8.18894 5.29336L8.25332 4.90095L8.46325 3.62137C8.46326 3.62129 8.46328 3.6212 8.46329 3.62111C8.54659 3.11612 8.62954 2.67881 8.89938 2.34634C9.14155 2.04798 9.61227 1.75 10.6799 1.75H13.2999C14.366 1.75 14.8401 2.05891 15.085 2.36644C15.3576 2.70887 15.4384 3.1516 15.5164 3.63046L15.5164 3.63046L15.5169 3.63343L15.7299 4.89201V5.33299L16.2022 5.35923C17.8159 5.44888 19.4186 5.56836 21.0205 5.72755Z" fill="#FF0044" stroke="#FF0044"/>
<path d="M18.32 8.25C18.5214 8.25 18.7197 8.33255 18.8656 8.48246C19.0043 8.63529 19.0827 8.84203 19.0708 9.06115C19.0708 9.06152 19.0708 9.06189 19.0708 9.06226L18.4511 19.307C18.394 20.1001 18.3293 20.8012 17.9438 21.3288C17.5895 21.8136 16.8698 22.26 15.21 22.26H8.78999C7.13115 22.26 6.41108 21.8116 6.05647 21.3254C5.6706 20.7963 5.60595 20.0947 5.5489 19.3069L4.92918 9.05148C4.92917 9.05124 4.92915 9.051 4.92914 9.05076C4.91743 8.84219 4.99548 8.6334 5.13796 8.47853C5.26721 8.33804 5.47061 8.25 5.67999 8.25H18.32ZM10.33 18.25H13.66C14.3461 18.25 14.91 17.6861 14.91 17C14.91 16.3139 14.3461 15.75 13.66 15.75H10.33C9.64385 15.75 9.07999 16.3139 9.07999 17C9.07999 17.6861 9.64385 18.25 10.33 18.25ZM9.49999 14.25H14.5C15.1861 14.25 15.75 13.6861 15.75 13C15.75 12.3139 15.1861 11.75 14.5 11.75H9.49999C8.81385 11.75 8.24999 12.3139 8.24999 13C8.24999 13.6861 8.81385 14.25 9.49999 14.25Z" fill="#FF0044" stroke="#FF0044"/>
</svg>
