<svg width="32" height="34" viewBox="0 0 32 34" fill="none" xmlns="http://www.w3.org/2000/svg">
<path d="M28.5167 6.74998L18.6167 1.03331C17 0.0999797 15 0.0999797 13.3667 1.03331L3.48337 6.74998C1.8667 7.68331 0.866699 9.41665 0.866699 11.3V22.7C0.866699 24.5666 1.8667 26.3 3.48337 27.25L13.3834 32.9666C15 33.9 17 33.9 18.6334 32.9666L28.5334 27.25C30.15 26.3166 31.15 24.5833 31.15 22.7V11.3C31.1334 9.41665 30.1334 7.69998 28.5167 6.74998ZM14.75 9.91665C14.75 9.23331 15.3167 8.66665 16 8.66665C16.6834 8.66665 17.25 9.23331 17.25 9.91665V18.6666C17.25 19.35 16.6834 19.9166 16 19.9166C15.3167 19.9166 14.75 19.35 14.75 18.6666V9.91665ZM17.5334 24.7166C17.45 24.9166 17.3334 25.1 17.1834 25.2666C16.8667 25.5833 16.45 25.75 16 25.75C15.7834 25.75 15.5667 25.7 15.3667 25.6166C15.15 25.5333 14.9834 25.4166 14.8167 25.2666C14.6667 25.1 14.55 24.9166 14.45 24.7166C14.3667 24.5166 14.3334 24.3 14.3334 24.0833C14.3334 23.65 14.5 23.2166 14.8167 22.9C14.9834 22.75 15.15 22.6333 15.3667 22.55C15.9834 22.2833 16.7167 22.4333 17.1834 22.9C17.3334 23.0666 17.45 23.2333 17.5334 23.45C17.6167 23.65 17.6667 23.8666 17.6667 24.0833C17.6667 24.3 17.6167 24.5166 17.5334 24.7166Z" fill="#FFAA00"/>
</svg>
